<?xml version="1.0" standalone="no"?>
<!DOCTYPE svg PUBLIC "-//W3C//DTD SVG 1.1//EN" "http://www.w3.org/Graphics/SVG/1.1/DTD/svg11.dtd" >
<svg xmlns="http://www.w3.org/2000/svg">
<metadata>Generated by IcoMoon</metadata>
<defs>
<font id="ts-icons" horiz-adv-x="2048">
<font-face units-per-em="2048" ascent="1755.3408" descent="-292.6592" />
<missing-glyph horiz-adv-x="2048" />
<glyph unicode="&#x20;" horiz-adv-x="1024" d="" />
<glyph unicode="&#xe900;" glyph-name="clock" d="M1962.666 731.429c0 259.158-105.13 493.994-274.944 663.722s-404.566 274.944-663.722 274.944-493.994-105.13-663.722-274.944-274.944-404.566-274.944-663.722 105.13-493.994 274.944-663.722 404.566-274.944 663.722-274.944 493.994 105.13 663.722 274.944 274.944 404.566 274.944 663.722zM1792 731.429c0-212.138-85.846-403.968-224.938-543.062s-330.922-224.938-543.062-224.938-403.968 85.846-543.062 224.938-224.938 330.922-224.938 543.062 85.846 403.968 224.938 543.062 330.922 224.938 543.062 224.938 403.968-85.846 543.062-224.938 224.938-330.922 224.938-543.062zM938.666 1243.429v-512c0-33.194 18.944-62.038 47.19-76.288l341.334-170.666c42.154-21.078 93.44-4.010 114.518 38.144s4.010 93.44-38.144 114.518l-294.23 147.030v459.264c0 47.104-38.23 85.334-85.334 85.334s-85.334-38.23-85.334-85.334z" />
<glyph unicode="&#xe901;" glyph-name="bright" d="M1536 731.429c0 141.398-57.43 269.482-149.93 362.070s-220.672 149.93-362.070 149.93-269.482-57.43-362.070-149.93-149.93-220.672-149.93-362.070 57.43-269.482 149.93-362.070 220.672-149.93 362.070-149.93 269.482 57.43 362.070 149.93 149.93 220.672 149.93 362.070zM1365.334 731.429c0-94.294-38.144-179.456-100.010-241.322s-147.030-100.010-241.322-100.010-179.456 38.144-241.322 100.010-100.010 147.030-100.010 241.322 38.144 179.456 100.010 241.322 147.030 100.010 241.322 100.010 179.456-38.144 241.322-100.010 100.010-147.030 100.010-241.322zM938.666 1670.095v-170.666c0-47.104 38.23-85.334 85.334-85.334s85.334 38.23 85.334 85.334v170.666c0 47.104-38.23 85.334-85.334 85.334s-85.334-38.23-85.334-85.334zM938.666-36.571v-170.666c0-47.104 38.23-85.334 85.334-85.334s85.334 38.23 85.334 85.334v170.666c0 47.104-38.23 85.334-85.334 85.334s-85.334-38.23-85.334-85.334zM299.776 1334.991l121.174-121.174c33.366-33.366 87.382-33.366 120.662 0s33.366 87.382 0 120.662l-121.174 121.174c-33.366 33.366-87.382 33.366-120.662 0s-33.366-87.382 0-120.662zM1506.39 128.379l121.174-121.174c33.366-33.366 87.382-33.366 120.662 0s33.366 87.382 0 120.662l-121.174 121.174c-33.366 33.366-87.382 33.366-120.662 0s-33.366-87.382 0-120.662zM85.334 646.095h170.666c47.104 0 85.334 38.23 85.334 85.334s-38.23 85.334-85.334 85.334h-170.666c-47.104 0-85.334-38.23-85.334-85.334s38.23-85.334 85.334-85.334zM1792 646.095h170.666c47.104 0 85.334 38.23 85.334 85.334s-38.23 85.334-85.334 85.334h-170.666c-47.104 0-85.334-38.23-85.334-85.334s38.23-85.334 85.334-85.334zM420.438 7.205l121.174 121.174c33.366 33.366 33.366 87.382 0 120.662s-87.382 33.366-120.662 0l-121.174-121.174c-33.366-33.366-33.366-87.382 0-120.662s87.382-33.366 120.662 0zM1627.050 1213.819l121.174 121.174c33.366 33.366 33.366 87.382 0 120.662s-87.382 33.366-120.662 0l-121.174-121.174c-33.366-33.366-33.366-87.382 0-120.662s87.382-33.366 120.662 0z" />
<glyph unicode="&#xe902;" glyph-name="moon" d="M1109.93-219.429c292.522 0 560.79 132.986 738.564 352.022 105.002 129.372-9.502 318.396-171.782 287.49-305.864-58.252-587.868 175.566-587.868 485.798 0 179.86 96.794 342.798 250.47 430.248 143.91 81.9 107.71 300.070-55.796 330.27-52.186 10.096-112.208 15.874-173.578 15.886h-0.010c-525.052 0-950.858-425.564-950.858-950.858 0-525.052 425.568-950.858 950.858-950.858zM1109.93 1504.001c48.23 0 95.416-4.46 141.202-12.918-203.394-115.748-340.574-334.442-340.574-585.2 0-422.864 384.952-739.886 799.508-660.934-141.648-174.526-357.85-286.090-600.136-286.090-426.678 0-772.572 345.892-772.572 772.572s345.892 772.572 772.572 772.572z" />
<glyph unicode="&#xe903;" glyph-name="telegram" horiz-adv-x="1792" d="M1786.8 1361.029l-270.4-1275.2c-20.4-90-73.6-112.4-149.2-70l-412 303.6-198.8-191.2c-22-22-40.4-40.4-82.8-40.4l29.6 419.6 763.6 690c33.2 29.6-7.2 46-51.6 16.4l-944-594.4-406.4 127.2c-88.4 27.6-90 88.4 18.4 130.8l1589.6 612.4c73.6 27.6 138-16.4 114-128.8z" />
<glyph unicode="&#xe904;" glyph-name="tiktok" horiz-adv-x="1792" d="M1727.984 902.617c-0.556-0.002-1.21-0.002-1.866-0.002-170.422 0-328.084 54.642-456.418 147.36l2.29-1.574v-663.804c-0.126-333.344-270.384-603.524-603.746-603.524-333.44 0-603.746 270.306-603.746 603.746s270.306 603.746 603.746 603.746c29.24 0 57.994-2.078 86.124-6.096l-3.222 0.376v-333.87c-24.86 8.1-53.464 12.772-83.162 12.772-153.068 0-277.154-124.086-277.154-277.154s124.086-277.154 277.154-277.154c153.068 0 277.154 124.086 277.154 277.154 0 0.002 0 0.004 0 0.008v0 1297.672h326.85c-0.010-1.1-0.014-2.4-0.014-3.702 0-27.794 2.518-54.998 7.342-81.396l-0.418 2.756c24.124-125.706 97.338-230.922 198.488-296.886l1.746-1.068c69.996-46.872 156.114-74.804 248.758-74.804 0.034 0 0.066 0 0.1 0h-0.006z" />
<glyph unicode="&#xe905;" glyph-name="discord" horiz-adv-x="1792" d="M1188.864 782.629c0-62.464-46.080-113.664-104.448-113.664-57.344 0-104.448 51.2-104.448 113.664s46.080 113.664 104.448 113.664c58.368 0 104.448-51.2 104.448-113.664zM710.656 896.293c-58.368 0-104.448-51.2-104.448-113.664s47.104-113.664 104.448-113.664c58.368 0 104.448 51.2 104.448 113.664 1.024 62.464-46.080 113.664-104.448 113.664zM1792 1544.485v-1837.056c-257.976 227.976-175.472 152.512-475.136 431.104l54.272-189.44h-1161.216c-115.712 0-209.92 94.208-209.92 210.944v1384.448c0 116.736 94.208 210.944 209.92 210.944h1372.16c115.712 0 209.92-94.208 209.92-210.944zM1500.16 573.733c0 329.728-147.456 596.992-147.456 596.992-147.456 110.592-287.744 107.52-287.744 107.52l-14.336-16.384c174.080-53.248 254.976-130.048 254.976-130.048-243.244 133.316-528.976 133.34-764.928 29.696-37.888-17.408-60.416-29.696-60.416-29.696s84.992 80.896 269.312 134.144l-10.24 12.288s-140.288 3.072-287.744-107.52c0 0-147.456-267.264-147.456-596.992 0 0 86.016-148.48 312.32-155.648 0 0 37.888 46.080 68.608 84.992-130.048 38.912-179.2 120.832-179.2 120.832 15.064-10.544 39.904-24.212 41.984-25.6 172.84-96.792 418.352-128.504 638.976-35.84 35.84 13.312 75.776 32.768 117.76 60.416 0 0-51.2-83.968-185.344-121.856 30.72-38.912 67.584-82.944 67.584-82.944 226.304 7.168 313.344 155.648 313.344 155.648z" />
<glyph unicode="&#xf001;" glyph-name="music" horiz-adv-x="1755" d="M1755.428 1499.429v-1280c0-161.142-241.142-219.428-365.714-219.428s-365.714 58.286-365.714 219.428 241.142 219.428 365.714 219.428c75.428 0 150.858-13.714 219.428-44.572v613.714l-877.714-270.858v-810.286c0-161.142-241.142-219.428-365.714-219.428s-365.714 58.286-365.714 219.428 241.142 219.428 365.714 219.428c75.428 0 150.858-13.714 219.428-44.572v1105.142c0 48 32 90.286 77.714 105.142l950.858 292.572c10.286 3.428 20.572 4.572 32 4.572 60.572 0 109.714-49.142 109.714-109.714z" />
<glyph unicode="&#xf002;" glyph-name="search" horiz-adv-x="1902" d="M1316.572 804.571c0 282.286-229.714 512-512 512s-512-229.714-512-512 229.714-512 512-512 512 229.714 512 512zM1901.714-146.285c0-80-66.286-146.286-146.286-146.286-38.858 0-76.572 16-102.858 43.428l-392 390.858c-133.714-92.572-293.714-141.714-456-141.714-444.572 0-804.572 360-804.572 804.572s360 804.572 804.572 804.572 804.572-360 804.572-804.572c0-162.286-49.142-322.286-141.714-456l392-392c26.286-26.286 42.286-64 42.286-102.858z" />
<glyph unicode="&#xf003;" glyph-name="envelope-o" d="M1901.714 36.571v877.714c-24-27.428-50.286-52.572-78.858-75.428-163.428-125.714-328-253.714-486.858-386.286-85.714-72-192-160-310.858-160h-2.286c-118.858 0-225.142 88-310.858 160-158.858 132.572-323.428 260.572-486.858 386.286-28.572 22.858-54.858 48-78.858 75.428v-877.714c0-19.428 17.142-36.572 36.572-36.572h1682.286c19.428 0 36.572 17.142 36.572 36.572zM1901.714 1237.715c0 28.572 6.858 78.858-36.572 78.858h-1682.286c-19.428 0-36.572-17.142-36.572-36.572 0-130.286 65.142-243.428 168-324.572 153.142-120 306.286-241.142 458.286-362.286 60.572-49.142 170.286-154.286 250.286-154.286h2.286c80 0 189.714 105.142 250.286 154.286 152 121.142 305.142 242.286 458.286 362.286 74.286 58.286 168 185.142 168 282.286zM2048 1280.001v-1243.428c0-100.572-82.286-182.858-182.858-182.858h-1682.286c-100.572 0-182.858 82.286-182.858 182.858v1243.428c0 100.572 82.286 182.858 182.858 182.858h1682.286c100.572 0 182.858-82.286 182.858-182.858z" />
<glyph unicode="&#xf004;" glyph-name="heart" d="M1024-146.285c-18.286 0-36.572 6.858-50.286 20.572l-713.142 688c-9.142 8-260.572 237.714-260.572 512 0 334.858 204.572 534.858 546.286 534.858 200 0 387.428-157.714 477.714-246.858 90.286 89.142 277.714 246.858 477.714 246.858 341.714 0 546.286-200 546.286-534.858 0-274.286-251.428-504-261.714-514.286l-712-685.714c-13.714-13.714-32-20.572-50.286-20.572z" />
<glyph unicode="&#xf005;" glyph-name="star" horiz-adv-x="1902" d="M1901.714 1016.001c0-20.572-14.858-40-29.714-54.858l-414.858-404.572 98.286-571.428c1.142-8 1.142-14.858 1.142-22.858 0-29.714-13.714-57.142-46.858-57.142-16 0-32 5.714-45.714 13.714l-513.142 269.714-513.142-269.714c-14.858-8-29.714-13.714-45.714-13.714-33.142 0-48 27.428-48 57.142 0 8 1.142 14.858 2.286 22.858l98.286 571.428-416 404.572c-13.714 14.858-28.572 34.286-28.572 54.858 0 34.286 35.428 48 64 52.572l573.714 83.428 257.142 520c10.286 21.714 29.714 46.858 56 46.858s45.714-25.142 56-46.858l257.142-520 573.714-83.428c27.428-4.572 64-18.286 64-52.572z" />
<glyph unicode="&#xf006;" glyph-name="star-o" horiz-adv-x="1902" d="M1299.428 608.001l349.714 339.428-482.286 70.858-216 436.572-216-436.572-482.286-70.858 349.714-339.428-83.428-481.142 432 227.428 430.858-227.428zM1901.714 1016.001c0-20.572-14.858-40-29.714-54.858l-414.858-404.572 98.286-571.428c1.142-8 1.142-14.858 1.142-22.858 0-30.858-13.714-57.142-46.858-57.142-16 0-32 5.714-45.714 13.714l-513.142 269.714-513.142-269.714c-14.858-8-29.714-13.714-45.714-13.714-33.142 0-48 27.428-48 57.142 0 8 1.142 14.858 2.286 22.858l98.286 571.428-416 404.572c-13.714 14.858-28.572 34.286-28.572 54.858 0 34.286 35.428 48 64 52.572l573.714 83.428 257.142 520c10.286 21.714 29.714 46.858 56 46.858s45.714-25.142 56-46.858l257.142-520 573.714-83.428c27.428-4.572 64-18.286 64-52.572z" />
<glyph unicode="&#xf00d;" glyph-name="close, remove, times" horiz-adv-x="1609" d="M1483.428 244.571c0-28.572-11.428-57.142-32-77.714l-155.428-155.428c-20.572-20.572-49.142-32-77.714-32s-57.142 11.428-77.714 32l-336 336-336-336c-20.572-20.572-49.142-32-77.714-32s-57.142 11.428-77.714 32l-155.428 155.428c-20.572 20.572-32 49.142-32 77.714s11.428 57.142 32 77.714l336 336-336 336c-20.572 20.572-32 49.142-32 77.714s11.428 57.142 32 77.714l155.428 155.428c20.572 20.572 49.142 32 77.714 32s57.142-11.428 77.714-32l336-336 336 336c20.572 20.572 49.142 32 77.714 32s57.142-11.428 77.714-32l155.428-155.428c20.572-20.572 32-49.142 32-77.714s-11.428-57.142-32-77.714l-336-336 336-336c20.572-20.572 32-49.142 32-77.714z" />
<glyph unicode="&#xf015;" glyph-name="home" horiz-adv-x="1902" d="M1609.142 621.715v-548.572c0-40-33.142-73.142-73.142-73.142h-438.858v438.858h-292.572v-438.858h-438.858c-40 0-73.142 33.142-73.142 73.142v548.572c0 2.286 1.142 4.572 1.142 6.858l657.142 541.714 657.142-541.714c1.142-2.286 1.142-4.572 1.142-6.858zM1864 700.571l-70.858-84.572c-5.714-6.858-14.858-11.428-24-12.572h-3.428c-9.142 0-17.142 2.286-24 8l-790.858 659.428-790.858-659.428c-8-5.714-17.142-9.142-27.428-8-9.142 1.142-18.286 5.714-24 12.572l-70.858 84.572c-12.572 14.858-10.286 38.858 4.572 51.428l821.714 684.572c48 40 125.714 40 173.714 0l278.858-233.142v222.858c0 20.572 16 36.572 36.572 36.572h219.428c20.572 0 36.572-16 36.572-36.572v-466.286l250.286-208c14.858-12.572 17.142-36.572 4.572-51.428z" />
<glyph unicode="&#xf017;" glyph-name="clock-o" horiz-adv-x="1755" d="M1024 1133.715v-512c0-20.572-16-36.572-36.572-36.572h-365.714c-20.572 0-36.572 16-36.572 36.572v73.142c0 20.572 16 36.572 36.572 36.572h256v402.286c0 20.572 16 36.572 36.572 36.572h73.142c20.572 0 36.572-16 36.572-36.572zM1499.428 731.429c0 342.858-278.858 621.714-621.714 621.714s-621.714-278.858-621.714-621.714 278.858-621.714 621.714-621.714 621.714 278.858 621.714 621.714zM1755.428 731.429c0-484.572-393.142-877.714-877.714-877.714s-877.714 393.142-877.714 877.714 393.142 877.714 877.714 877.714 877.714-393.142 877.714-877.714z" />
<glyph unicode="&#xf01e;" glyph-name="repeat, rotate-right" horiz-adv-x="1755" d="M1755.428 1462.857v-512c0-40-33.142-73.142-73.142-73.142h-512c-29.714 0-56 18.286-67.428 45.714-11.428 26.286-5.714 58.286 16 78.858l157.714 157.714c-107.428 99.428-249.142 156.572-398.858 156.572-322.286 0-585.142-262.858-585.142-585.142s262.858-585.142 585.142-585.142c181.714 0 349.714 82.286 461.714 227.428 5.714 8 16 12.572 26.286 13.714 10.286 0 20.572-3.428 28.572-10.286l156.572-157.714c13.714-12.572 13.714-34.286 2.286-49.142-166.858-201.142-413.714-316.572-675.428-316.572-483.428 0-877.714 394.286-877.714 877.714s394.286 877.714 877.714 877.714c225.142 0 443.428-90.286 604.572-242.286l148.572 147.428c20.572 21.714 52.572 27.428 80 16 26.286-11.428 44.572-37.714 44.572-67.428z" />
<glyph unicode="&#xf03e;" glyph-name="image, photo, picture-o" horiz-adv-x="2194" d="M731.428 1097.143c0-121.142-98.286-219.428-219.428-219.428s-219.428 98.286-219.428 219.428 98.286 219.428 219.428 219.428 219.428-98.286 219.428-219.428zM1901.714 658.287v-512h-1609.142v219.428l365.714 365.714 182.858-182.858 585.142 585.142zM2011.428 1462.857h-1828.572c-19.428 0-36.572-17.142-36.572-36.572v-1389.714c0-19.428 17.142-36.572 36.572-36.572h1828.572c19.428 0 36.572 17.142 36.572 36.572v1389.714c0 19.428-17.142 36.572-36.572 36.572zM2194.286 1426.287v-1389.714c0-100.572-82.286-182.858-182.858-182.858h-1828.572c-100.572 0-182.858 82.286-182.858 182.858v1389.714c0 100.572 82.286 182.858 182.858 182.858h1828.572c100.572 0 182.858-82.286 182.858-182.858z" />
<glyph unicode="&#xf04b;" glyph-name="play" horiz-adv-x="1617" d="M1581.714 696.001l-1517.714-843.428c-35.428-19.428-64-2.286-64 37.714v1682.286c0 40 28.572 57.142 64 37.714l1517.714-843.428c35.428-19.428 35.428-51.428 0-70.858z" />
<glyph unicode="&#xf053;" glyph-name="chevron-left" horiz-adv-x="1536" d="M1338.286 1411.429l-606.858-606.858 606.858-606.858c28.572-28.572 28.572-74.286 0-102.858l-189.714-189.714c-28.572-28.572-74.286-28.572-102.858 0l-848 848c-28.572 28.572-28.572 74.286 0 102.858l848 848c28.572 28.572 74.286 28.572 102.858 0l189.714-189.714c28.572-28.572 28.572-74.286 0-102.858z" />
<glyph unicode="&#xf054;" glyph-name="chevron-right" horiz-adv-x="1390" d="M1265.142 753.143l-848-848c-28.572-28.572-74.286-28.572-102.858 0l-189.714 189.714c-28.572 28.572-28.572 74.286 0 102.858l606.858 606.858-606.858 606.858c-28.572 28.572-28.572 74.286 0 102.858l189.714 189.714c28.572 28.572 74.286 28.572 102.858 0l848-848c28.572-28.572 28.572-74.286 0-102.858z" />
<glyph unicode="&#xf064;" glyph-name="mail-forward, share" d="M2048 1024.001c0-19.428-8-37.714-21.714-51.428l-585.142-585.142c-13.714-13.714-32-21.714-51.428-21.714-40 0-73.142 33.142-73.142 73.142v292.572h-256c-492.572 0-816-94.858-816-640 0-46.858 2.286-93.714 5.714-140.572 1.142-18.286 5.714-38.858 5.714-57.142 0-21.714-13.714-40-36.572-40-16 0-24 8-32 19.428-17.142 24-29.714 60.572-42.286 86.858-65.142 146.286-145.142 355.428-145.142 515.428 0 128 12.572 259.428 60.572 380.572 158.858 394.286 625.142 460.572 1000 460.572h256v292.572c0 40 33.142 73.142 73.142 73.142 19.428 0 37.714-8 51.428-21.714l585.142-585.142c13.714-13.714 21.714-32 21.714-51.428z" />
<glyph unicode="&#xf067;" glyph-name="plus" horiz-adv-x="1609" d="M1609.142 914.287v-219.428c0-60.572-49.142-109.714-109.714-109.714h-475.428v-475.428c0-60.572-49.142-109.714-109.714-109.714h-219.428c-60.572 0-109.714 49.142-109.714 109.714v475.428h-475.428c-60.572 0-109.714 49.142-109.714 109.714v219.428c0 60.572 49.142 109.714 109.714 109.714h475.428v475.428c0 60.572 49.142 109.714 109.714 109.714h219.428c60.572 0 109.714-49.142 109.714-109.714v-475.428h475.428c60.572 0 109.714-49.142 109.714-109.714z" />
<glyph unicode="&#xf078;" glyph-name="chevron-down" d="M1923.428 832.001l-848-846.858c-28.572-28.572-74.286-28.572-102.858 0l-848 846.858c-28.572 28.572-28.572 75.428 0 104l189.714 188.572c28.572 28.572 74.286 28.572 102.858 0l606.858-606.858 606.858 606.858c28.572 28.572 74.286 28.572 102.858 0l189.714-188.572c28.572-28.572 28.572-75.428 0-104z" />
<glyph unicode="&#xf07a;" glyph-name="shopping-cart" horiz-adv-x="1902" d="M731.428 0.001c0-80-66.286-146.286-146.286-146.286s-146.286 66.286-146.286 146.286 66.286 146.286 146.286 146.286 146.286-66.286 146.286-146.286zM1755.428 0.001c0-80-66.286-146.286-146.286-146.286s-146.286 66.286-146.286 146.286 66.286 146.286 146.286 146.286 146.286-66.286 146.286-146.286zM1901.714 1243.429v-585.142c0-36.572-28.572-68.572-65.142-73.142l-1193.142-139.428c5.714-26.286 14.858-52.572 14.858-80 0-26.286-16-50.286-27.428-73.142h1051.428c40 0 73.142-33.142 73.142-73.142s-33.142-73.142-73.142-73.142h-1170.286c-40 0-73.142 33.142-73.142 73.142 0 35.428 51.428 121.142 69.714 156.572l-202.286 940.572h-233.142c-40 0-73.142 33.142-73.142 73.142s33.142 73.142 73.142 73.142h292.572c76.572 0 78.858-91.428 90.286-146.286h1372.572c40 0 73.142-33.142 73.142-73.142z" />
<glyph unicode="&#xf08a;" glyph-name="heart-o" d="M1901.714 1074.287c0 321.142-217.142 388.572-400 388.572-170.286 0-362.286-184-421.714-254.858-27.428-33.142-84.572-33.142-112 0-59.428 70.858-251.428 254.858-421.714 254.858-182.858 0-400-67.428-400-388.572 0-209.142 211.428-403.428 213.714-405.714l664-640 662.858 638.858c3.428 3.428 214.858 197.714 214.858 406.858zM2048 1074.287c0-274.286-251.428-504-261.714-514.286l-712-685.714c-13.714-13.714-32-20.572-50.286-20.572s-36.572 6.858-50.286 20.572l-713.142 688c-9.142 8-260.572 237.714-260.572 512 0 334.858 204.572 534.858 546.286 534.858 200 0 387.428-157.714 477.714-246.858 90.286 89.142 277.714 246.858 477.714 246.858 341.714 0 546.286-200 546.286-534.858z" />
<glyph unicode="&#xf099;" glyph-name="twitter" horiz-adv-x="1902" d="M1851.428 1289.143c-50.286-73.142-113.142-138.286-185.142-190.858 1.142-16 1.142-32 1.142-48 0-488-371.428-1050.286-1050.286-1050.286-209.142 0-403.428 60.572-566.858 165.714 29.714-3.428 58.286-4.572 89.142-4.572 172.572 0 331.428 58.286 458.286 157.714-162.286 3.428-298.286 109.714-345.142 256 22.858-3.428 45.714-5.714 69.714-5.714 33.142 0 66.286 4.572 97.142 12.572-169.142 34.286-296 182.858-296 362.286v4.572c49.142-27.428 106.286-44.572 166.858-46.858-99.428 66.286-164.572 179.428-164.572 307.428 0 68.572 18.286 131.428 50.286 186.286 181.714-224 454.858-370.286 761.142-386.286-5.714 27.428-9.142 56-9.142 84.572 0 203.428 164.572 369.142 369.142 369.142 106.286 0 202.286-44.572 269.714-116.572 83.428 16 163.428 46.858 234.286 89.142-27.428-85.714-85.714-157.714-162.286-203.428 74.286 8 146.286 28.572 212.572 57.142z" />
<glyph unicode="&#xf09a;" glyph-name="facebook, facebook-f" horiz-adv-x="1205" d="M1096 1741.715v-301.714h-179.428c-140.572 0-166.858-67.428-166.858-164.572v-216h334.858l-44.572-338.286h-290.286v-867.428h-349.714v867.428h-291.428v338.286h291.428v249.142c0 289.142 177.142 446.858 435.428 446.858 123.428 0 229.714-9.142 260.572-13.714z" />
<glyph unicode="&#xf09e;" glyph-name="feed, rss" horiz-adv-x="1610" d="M438.858 219.429c0-121.142-98.286-219.428-219.428-219.428s-219.428 98.286-219.428 219.428 98.286 219.428 219.428 219.428 219.428-98.286 219.428-219.428zM1024 78.857c1.142-20.572-5.714-40-19.428-54.858-13.714-16-33.142-24-53.714-24h-154.286c-37.714 0-68.572 28.572-72 66.286-33.142 348.572-309.714 625.142-658.286 658.286-37.714 3.428-66.286 34.286-66.286 72v154.286c0 20.572 8 40 24 53.714 12.572 12.572 30.858 19.428 49.142 19.428h5.714c243.428-19.428 473.142-125.714 645.714-299.428 173.714-172.572 280-402.286 299.428-645.714zM1609.142 76.571c1.142-19.428-5.714-38.858-20.572-53.714-13.714-14.858-32-22.858-52.572-22.858h-163.428c-38.858 0-70.858 29.714-73.142 68.572-37.714 664-566.858 1193.142-1230.858 1232-38.858 2.286-68.572 34.286-68.572 72v163.428c0 20.572 8 38.858 22.858 52.572 13.714 13.714 32 20.572 50.286 20.572h3.428c400-20.572 776-188.572 1059.428-473.142 284.572-283.428 452.572-659.428 473.142-1059.428z" />
<glyph unicode="&#xf0c9;" glyph-name="bars, navicon, reorder" horiz-adv-x="1755" d="M1755.428 219.429v-146.286c0-40-33.142-73.142-73.142-73.142h-1609.142c-40 0-73.142 33.142-73.142 73.142v146.286c0 40 33.142 73.142 73.142 73.142h1609.142c40 0 73.142-33.142 73.142-73.142zM1755.428 804.571v-146.286c0-40-33.142-73.142-73.142-73.142h-1609.142c-40 0-73.142 33.142-73.142 73.142v146.286c0 40 33.142 73.142 73.142 73.142h1609.142c40 0 73.142-33.142 73.142-73.142zM1755.428 1389.715v-146.286c0-40-33.142-73.142-73.142-73.142h-1609.142c-40 0-73.142 33.142-73.142 73.142v146.286c0 40 33.142 73.142 73.142 73.142h1609.142c40 0 73.142-33.142 73.142-73.142z" />
<glyph unicode="&#xf0d2;" glyph-name="pinterest" horiz-adv-x="1755" d="M1755.428 731.429c0-484.572-393.142-877.714-877.714-877.714-86.858 0-169.142 12.572-249.142 36.572 33.142 52.572 70.858 120 89.142 187.428 0 0 10.286 38.858 61.714 241.142 29.714-58.286 118.858-109.714 213.714-109.714 282.286 0 474.286 257.142 474.286 602.286 0 259.428-220.572 502.858-556.572 502.858-416 0-626.286-299.428-626.286-548.572 0-150.858 57.142-285.714 179.428-336 19.428-8 37.714 0 43.428 22.858 4.572 14.858 13.714 53.714 18.286 69.714 5.714 22.858 3.428 29.714-12.572 49.142-35.428 42.286-58.286 96-58.286 172.572 0 221.714 165.714 420.572 432 420.572 235.428 0 365.714-144 365.714-337.142 0-252.572-112-466.286-278.858-466.286-91.428 0-160 75.428-138.286 169.142 26.286 110.858 77.714 230.858 77.714 310.858 0 72-38.858 132.572-118.858 132.572-93.714 0-169.142-97.142-169.142-227.428 0 0 0-83.428 28.572-139.428-96-406.858-113.142-477.714-113.142-477.714-16-66.286-17.142-140.572-14.858-202.286-309.714 136-525.714 444.572-525.714 804.572 0 484.572 393.142 877.714 877.714 877.714s877.714-393.142 877.714-877.714z" />
<glyph unicode="&#xf0e1;" glyph-name="linkedin" horiz-adv-x="1755" d="M398.858 1041.143v-1132.572h-377.142v1132.572h377.142zM422.858 1390.857c1.142-108.572-81.142-195.428-212.572-195.428v0h-2.286c-126.858 0-208 86.858-208 195.428 0 110.858 84.572 195.428 212.572 195.428 129.142 0 209.142-84.572 210.286-195.428zM1755.428 557.715v-649.142h-376v605.714c0 152-54.858 256-190.858 256-104 0-165.714-69.714-193.142-137.142-9.142-25.142-12.572-58.286-12.572-92.572v-632h-376c4.572 1026.286 0 1132.572 0 1132.572h376v-164.572h-2.286c49.142 77.714 138.286 190.858 341.714 190.858 248 0 433.142-162.286 433.142-509.714z" />
<glyph unicode="&#xf0e5;" glyph-name="comment-o" d="M1024 1316.571c-475.428 0-877.714-267.428-877.714-585.142 0-170.286 114.286-332.572 312-444.572l99.428-57.142-30.858-109.714c-21.714-81.142-50.286-144-80-196.572 115.428 48 220.572 113.142 314.286 195.428l49.142 43.428 65.142-6.858c49.142-5.714 99.428-9.142 148.572-9.142 475.428 0 877.714 267.428 877.714 585.142s-402.286 585.142-877.714 585.142zM2048 731.429c0-404.572-458.286-731.428-1024-731.428-56 0-112 3.428-165.714 9.142-149.714-132.572-328-226.286-525.714-276.572-41.142-11.428-85.714-19.428-130.286-25.142h-5.714c-22.858 0-43.428 18.286-49.142 43.428v1.142c-5.714 28.572 13.714 45.714 30.858 66.286 72 81.142 154.286 149.714 208 340.572-235.428 133.714-386.286 340.572-386.286 572.572 0 404.572 458.286 731.428 1024 731.428v0c565.714 0 1024-326.858 1024-731.428z" />
<glyph unicode="&#xf0e6;" glyph-name="comments-o" d="M804.572 1316.571c-356.572 0-658.286-201.142-658.286-438.858 0-125.714 84.572-246.858 230.858-331.428l110.858-64-40-96c24 13.714 48 28.572 70.858 44.572l50.286 35.428 60.572-11.428c57.142-10.286 115.428-16 174.858-16 356.572 0 658.286 201.142 658.286 438.858s-301.714 438.858-658.286 438.858zM804.572 1462.857c444.572 0 804.572-261.714 804.572-585.142s-360-585.142-804.572-585.142c-69.714 0-137.142 6.858-201.142 18.286-94.858-67.428-202.286-116.572-317.714-146.286-30.858-8-64-13.714-98.286-18.286h-3.428c-17.142 0-33.142 13.714-36.572 33.142v0c-4.572 21.714 10.286 35.428 22.858 50.286 44.572 50.286 94.858 94.858 133.714 189.714-185.142 107.428-304 273.142-304 458.286 0 323.428 360 585.142 804.572 585.142zM1744 126.857c38.858-94.858 89.142-139.428 133.714-189.714 12.572-14.858 27.428-28.572 22.858-50.286v0c-4.572-20.572-21.714-35.428-40-33.142-34.286 4.572-67.428 10.286-98.286 18.286-115.428 29.714-222.858 78.858-317.714 146.286-64-11.428-131.428-18.286-201.142-18.286-206.858 0-396.572 57.142-539.428 150.858 33.142-2.286 67.428-4.572 100.572-4.572 245.714 0 477.714 70.858 654.858 198.858 190.858 139.428 296 328 296 532.572 0 59.428-9.142 117.714-26.286 173.714 193.142-106.286 318.858-275.428 318.858-466.286 0-186.286-118.858-350.858-304-458.286z" />
<glyph unicode="&#xf0f5;" glyph-name="cutlery" horiz-adv-x="1609" d="M731.428 1682.287v-731.428c0-92.572-59.428-176-146.286-206.858v-890.286c0-80-66.286-146.286-146.286-146.286h-146.286c-80 0-146.286 66.286-146.286 146.286v890.286c-86.858 30.858-146.286 114.286-146.286 206.858v731.428c0 40 33.142 73.142 73.142 73.142s73.142-33.142 73.142-73.142v-475.428c0-40 33.142-73.142 73.142-73.142s73.142 33.142 73.142 73.142v475.428c0 40 33.142 73.142 73.142 73.142s73.142-33.142 73.142-73.142v-475.428c0-40 33.142-73.142 73.142-73.142s73.142 33.142 73.142 73.142v475.428c0 40 33.142 73.142 73.142 73.142s73.142-33.142 73.142-73.142zM1609.142 1682.287v-1828.572c0-80-66.286-146.286-146.286-146.286h-146.286c-80 0-146.286 66.286-146.286 146.286v585.142h-256c-19.428 0-36.572 17.142-36.572 36.572v914.286c0 201.142 164.572 365.714 365.714 365.714h292.572c40 0 73.142-33.142 73.142-73.142z" />
<glyph unicode="&#xf100;" glyph-name="angle-double-left" horiz-adv-x="1207" d="M716.572 182.857c0-9.142-4.572-19.428-11.428-26.286l-57.142-57.142c-6.858-6.858-17.142-11.428-26.286-11.428s-19.428 4.572-26.286 11.428l-532.572 532.572c-6.858 6.858-11.428 17.142-11.428 26.286s4.572 19.428 11.428 26.286l532.572 532.572c6.858 6.858 17.142 11.428 26.286 11.428s19.428-4.572 26.286-11.428l57.142-57.142c6.858-6.858 11.428-17.142 11.428-26.286s-4.572-19.428-11.428-26.286l-449.142-449.142 449.142-449.142c6.858-6.858 11.428-17.142 11.428-26.286zM1155.428 182.857c0-9.142-4.572-19.428-11.428-26.286l-57.142-57.142c-6.858-6.858-17.142-11.428-26.286-11.428s-19.428 4.572-26.286 11.428l-532.572 532.572c-6.858 6.858-11.428 17.142-11.428 26.286s4.572 19.428 11.428 26.286l532.572 532.572c6.858 6.858 17.142 11.428 26.286 11.428s19.428-4.572 26.286-11.428l57.142-57.142c6.858-6.858 11.428-17.142 11.428-26.286s-4.572-19.428-11.428-26.286l-449.142-449.142 449.142-449.142c6.858-6.858 11.428-17.142 11.428-26.286z" />
<glyph unicode="&#xf101;" glyph-name="angle-double-right" horiz-adv-x="1134" d="M680 658.287c0-9.142-4.572-19.428-11.428-26.286l-532.572-532.572c-6.858-6.858-17.142-11.428-26.286-11.428s-19.428 4.572-26.286 11.428l-57.142 57.142c-6.858 6.858-11.428 17.142-11.428 26.286s4.572 19.428 11.428 26.286l449.142 449.142-449.142 449.142c-6.858 6.858-11.428 17.142-11.428 26.286s4.572 19.428 11.428 26.286l57.142 57.142c6.858 6.858 17.142 11.428 26.286 11.428s19.428-4.572 26.286-11.428l532.572-532.572c6.858-6.858 11.428-17.142 11.428-26.286zM1118.858 658.287c0-9.142-4.572-19.428-11.428-26.286l-532.572-532.572c-6.858-6.858-17.142-11.428-26.286-11.428s-19.428 4.572-26.286 11.428l-57.142 57.142c-6.858 6.858-11.428 17.142-11.428 26.286s4.572 19.428 11.428 26.286l449.142 449.142-449.142 449.142c-6.858 6.858-11.428 17.142-11.428 26.286s4.572 19.428 11.428 26.286l57.142 57.142c6.858 6.858 17.142 11.428 26.286 11.428s19.428-4.572 26.286-11.428l532.572-532.572c6.858-6.858 11.428-17.142 11.428-26.286z" />
<glyph unicode="&#xf104;" glyph-name="angle-left" horiz-adv-x="768" d="M716.572 1133.715c0-9.142-4.572-19.428-11.428-26.286l-449.142-449.142 449.142-449.142c6.858-6.858 11.428-17.142 11.428-26.286s-4.572-19.428-11.428-26.286l-57.142-57.142c-6.858-6.858-17.142-11.428-26.286-11.428s-19.428 4.572-26.286 11.428l-532.572 532.572c-6.858 6.858-11.428 17.142-11.428 26.286s4.572 19.428 11.428 26.286l532.572 532.572c6.858 6.858 17.142 11.428 26.286 11.428s19.428-4.572 26.286-11.428l57.142-57.142c6.858-6.858 11.428-16 11.428-26.286z" />
<glyph unicode="&#xf105;" glyph-name="angle-right" horiz-adv-x="695" d="M680 658.287c0-9.142-4.572-19.428-11.428-26.286l-532.572-532.572c-6.858-6.858-17.142-11.428-26.286-11.428s-19.428 4.572-26.286 11.428l-57.142 57.142c-6.858 6.858-11.428 16-11.428 26.286 0 9.142 4.572 19.428 11.428 26.286l449.142 449.142-449.142 449.142c-6.858 6.858-11.428 17.142-11.428 26.286s4.572 19.428 11.428 26.286l57.142 57.142c6.858 6.858 17.142 11.428 26.286 11.428s19.428-4.572 26.286-11.428l532.572-532.572c6.858-6.858 11.428-17.142 11.428-26.286z" />
<glyph unicode="&#xf106;" glyph-name="angle-up" horiz-adv-x="1317" d="M1228.572 402.287c0-9.142-4.572-19.428-11.428-26.286l-57.142-57.142c-6.858-6.858-16-11.428-26.286-11.428-9.142 0-19.428 4.572-26.286 11.428l-449.142 449.142-449.142-449.142c-6.858-6.858-17.142-11.428-26.286-11.428s-19.428 4.572-26.286 11.428l-57.142 57.142c-6.858 6.858-11.428 17.142-11.428 26.286s4.572 19.428 11.428 26.286l532.572 532.572c6.858 6.858 17.142 11.428 26.286 11.428s19.428-4.572 26.286-11.428l532.572-532.572c6.858-6.858 11.428-17.142 11.428-26.286z" />
<glyph unicode="&#xf107;" glyph-name="angle-down" horiz-adv-x="1317" d="M1228.572 914.287c0-9.142-4.572-19.428-11.428-26.286l-532.572-532.572c-6.858-6.858-17.142-11.428-26.286-11.428s-19.428 4.572-26.286 11.428l-532.572 532.572c-6.858 6.858-11.428 17.142-11.428 26.286s4.572 19.428 11.428 26.286l57.142 57.142c6.858 6.858 16 11.428 26.286 11.428 9.142 0 19.428-4.572 26.286-11.428l449.142-449.142 449.142 449.142c6.858 6.858 17.142 11.428 26.286 11.428s19.428-4.572 26.286-11.428l57.142-57.142c6.858-6.858 11.428-17.142 11.428-26.286z" />
<glyph unicode="&#xf10c;" glyph-name="circle-o" horiz-adv-x="1755" d="M877.714 1353.143c-342.858 0-621.714-278.858-621.714-621.714s278.858-621.714 621.714-621.714 621.714 278.858 621.714 621.714-278.858 621.714-621.714 621.714zM1755.428 731.429c0-484.572-393.142-877.714-877.714-877.714s-877.714 393.142-877.714 877.714 393.142 877.714 877.714 877.714v0c484.572 0 877.714-393.142 877.714-877.714z" />
<glyph unicode="&#xf112;" glyph-name="mail-reply, reply" d="M2048 475.429c0-160-80-369.142-145.142-515.428-12.572-26.286-25.142-62.858-42.286-86.858-8-11.428-16-19.428-32-19.428-22.858 0-36.572 18.286-36.572 40 0 18.286 4.572 38.858 5.714 57.142 3.428 46.858 5.714 93.714 5.714 140.572 0 545.142-323.428 640-816 640h-256v-292.572c0-40-33.142-73.142-73.142-73.142-19.428 0-37.714 8-51.428 21.714l-585.142 585.142c-13.714 13.714-21.714 32-21.714 51.428s8 37.714 21.714 51.428l585.142 585.142c13.714 13.714 32 21.714 51.428 21.714 40 0 73.142-33.142 73.142-73.142v-292.572h256c374.858 0 841.142-66.286 1000-460.572 48-121.142 60.572-252.572 60.572-380.572z" />
<glyph unicode="&#xf16a;" glyph-name="youtube-play" d="M812.572 466.287l553.142 285.714-553.142 289.142v-574.858zM1024 1451.429c430.858 0 716.572-20.572 716.572-20.572 40-4.572 128-4.572 205.714-86.858 0 0 62.858-61.714 81.142-203.428 21.714-165.714 20.572-331.428 20.572-331.428v-155.428s1.142-165.714-20.572-331.428c-18.286-140.572-81.142-203.428-81.142-203.428-77.714-81.142-165.714-81.142-205.714-85.714 0 0-285.714-21.714-716.572-21.714v0c-532.572 4.572-696 20.572-696 20.572-45.714 8-148.572 5.714-226.286 86.858 0 0-62.858 62.858-81.142 203.428-21.714 165.714-20.572 331.428-20.572 331.428v155.428s-1.142 165.714 20.572 331.428c18.286 141.714 81.142 203.428 81.142 203.428 77.714 82.286 165.714 82.286 205.714 86.858 0 0 285.714 20.572 716.572 20.572v0z" />
<glyph unicode="&#xf16d;" glyph-name="instagram" horiz-adv-x="1755" d="M1170.286 731.429c0 161.142-131.428 292.572-292.572 292.572s-292.572-131.428-292.572-292.572 131.428-292.572 292.572-292.572 292.572 131.428 292.572 292.572zM1328 731.429c0-249.142-201.142-450.286-450.286-450.286s-450.286 201.142-450.286 450.286 201.142 450.286 450.286 450.286 450.286-201.142 450.286-450.286zM1451.428 1200.001c0-58.286-46.858-105.142-105.142-105.142s-105.142 46.858-105.142 105.142 46.858 105.142 105.142 105.142 105.142-46.858 105.142-105.142zM877.714 1451.429c-128 0-402.286 10.286-517.714-35.428-40-16-69.714-35.428-100.572-66.286s-50.286-60.572-66.286-100.572c-45.714-115.428-35.428-389.714-35.428-517.714s-10.286-402.286 35.428-517.714c16-40 35.428-69.714 66.286-100.572s60.572-50.286 100.572-66.286c115.428-45.714 389.714-35.428 517.714-35.428s402.286-10.286 517.714 35.428c40 16 69.714 35.428 100.572 66.286s50.286 60.572 66.286 100.572c45.714 115.428 35.428 389.714 35.428 517.714s10.286 402.286-35.428 517.714c-16 40-35.428 69.714-66.286 100.572s-60.572 50.286-100.572 66.286c-115.428 45.714-389.714 35.428-517.714 35.428zM1755.428 731.429c0-121.142 1.142-241.142-5.714-362.286-6.858-140.572-38.858-265.142-141.714-368s-227.428-134.858-368-141.714c-121.142-6.858-241.142-5.714-362.286-5.714s-241.142-1.142-362.286 5.714c-140.572 6.858-265.142 38.858-368 141.714s-134.858 227.428-141.714 368c-6.858 121.142-5.714 241.142-5.714 362.286s-1.142 241.142 5.714 362.286c6.858 140.572 38.858 265.142 141.714 368s227.428 134.858 368 141.714c121.142 6.858 241.142 5.714 362.286 5.714s241.142 1.142 362.286-5.714c140.572-6.858 265.142-38.858 368-141.714s134.858-227.428 141.714-368c6.858-121.142 5.714-241.142 5.714-362.286z" />
<glyph unicode="&#xf16e;" glyph-name="flickr" horiz-adv-x="1755" d="M1426.286 1609.143c181.714 0 329.142-147.428 329.142-329.142v-1097.142c0-181.714-147.428-329.142-329.142-329.142h-1097.142c-181.714 0-329.142 147.428-329.142 329.142v1097.142c0 181.714 147.428 329.142 329.142 329.142h1097.142zM797.714 731.429c0 133.714-108.572 242.286-242.286 242.286s-242.286-108.572-242.286-242.286 108.572-242.286 242.286-242.286 242.286 108.572 242.286 242.286zM1442.286 731.429c0 133.714-108.572 242.286-242.286 242.286s-242.286-108.572-242.286-242.286 108.572-242.286 242.286-242.286 242.286 108.572 242.286 242.286z" />
<glyph unicode="&#xf173;" glyph-name="tumblr" horiz-adv-x="1248" d="M1078.858 236.571l91.428-270.858c-34.286-51.428-189.714-109.714-329.142-112-414.858-6.858-571.428 294.858-571.428 507.428v621.714h-192v245.714c288 104 357.714 364.572 373.714 513.142 1.142 9.142 9.142 13.714 13.714 13.714h278.858v-484.572h380.572v-288h-381.714v-592c0-80 29.714-190.858 182.858-187.428 50.286 1.142 117.714 16 153.142 33.142z" />
<glyph unicode="&#xf177;" glyph-name="long-arrow-left" horiz-adv-x="2121" d="M2048 841.143v-219.428c0-20.572-16-36.572-36.572-36.572h-1426.286v-256c0-14.858-8-27.428-21.714-33.142s-28.572-3.428-40 5.714l-438.858 400c-6.858 6.858-11.428 16-11.428 26.286v0c0 10.286 4.572 20.572 11.428 27.428l438.858 404.572c11.428 10.286 26.286 12.572 40 6.858 12.572-5.714 21.714-18.286 21.714-33.142v-256h1426.286c20.572 0 36.572-16 36.572-36.572z" />
<glyph unicode="&#xf178;" glyph-name="long-arrow-right" horiz-adv-x="1975" d="M1974.858 734.857c0-10.286-4.572-20.572-11.428-27.428l-438.858-404.572c-11.428-10.286-26.286-12.572-40-6.858-12.572 5.714-21.714 18.286-21.714 33.142v256h-1426.286c-20.572 0-36.572 16-36.572 36.572v219.428c0 20.572 16 36.572 36.572 36.572h1426.286v256c0 14.858 8 27.428 21.714 33.142s28.572 3.428 40-5.714l438.858-400c6.858-6.858 11.428-16 11.428-26.286v0z" />
<glyph unicode="&#xf17d;" glyph-name="dribbble" horiz-adv-x="1755" d="M1170.286 41.143c-11.428 66.286-54.858 294.858-160 569.142-1.142 0-3.428-1.142-4.572-1.142 0 0-444.572-155.428-588.572-468.572-6.858 5.714-17.142 12.572-17.142 12.572 130.286-106.286 296-171.428 477.714-171.428 104 0 202.286 21.714 292.572 59.428zM958.858 734.857c-18.286 42.286-38.858 84.572-60.572 126.858-386.286-115.428-756.572-106.286-769.142-106.286-1.142-8-1.142-16-1.142-24 0-192 73.142-368 192-500.572v0c204.572 364.572 609.142 494.858 609.142 494.858 10.286 3.428 20.572 5.714 29.714 9.142zM836.572 977.143c-130.286 230.858-268.572 418.286-278.858 432-209.142-98.286-364.572-291.428-413.714-523.428 19.428 0 332.572-3.428 692.572 91.428zM1618.286 612.571c-16 4.572-225.142 70.858-467.428 33.142 98.286-270.858 138.286-491.428 146.286-536 168 113.142 286.858 293.714 321.142 502.858zM698.286 1459.429c-1.142 0-1.142 0-2.286-1.142 0 0 1.142 1.142 2.286 1.142zM1372.572 1293.715c-131.428 116.572-305.142 187.428-494.858 187.428-60.572 0-120-8-177.142-21.714 11.428-14.858 153.142-201.142 281.142-436.572 282.286 105.142 388.572 267.428 390.858 270.858zM1627.428 739.429c-2.286 177.142-65.142 340.572-170.286 468.572-2.286-2.286-122.286-176-418.286-297.142 17.142-35.428 34.286-72 50.286-108.572 5.714-12.572 10.286-26.286 16-38.858 258.286 33.142 513.142-22.858 522.286-24zM1755.428 731.429c0-484.572-393.142-877.714-877.714-877.714s-877.714 393.142-877.714 877.714 393.142 877.714 877.714 877.714 877.714-393.142 877.714-877.714z" />
<glyph unicode="&#xf189;" glyph-name="vk" horiz-adv-x="2238" d="M2190.858 1161.143c17.142-46.858-36.572-156.572-171.428-336-221.714-294.858-245.714-267.428-62.858-437.714 176-163.428 212.572-242.286 218.286-252.572 0 0 73.142-128-81.142-129.142l-292.572-4.572c-62.858-12.572-146.286 44.572-146.286 44.572-109.714 75.428-212.572 270.858-292.572 245.714 0 0-82.286-26.286-80-202.286 1.142-37.714-17.142-58.286-17.142-58.286s-20.572-21.714-60.572-25.142h-131.428c-289.142-18.286-544 248-544 248s-278.858 288-523.428 862.858c-16 37.714 1.142 56 1.142 56s17.142 21.714 65.142 21.714l313.142 2.286c29.714-4.572 50.286-20.572 50.286-20.572s18.286-12.572 27.428-36.572c51.428-128 117.714-244.572 117.714-244.572 114.286-235.428 192-275.428 236.572-251.428 0 0 58.286 35.428 45.714 320-4.572 102.858-33.142 149.714-33.142 149.714-26.286 35.428-75.428 45.714-97.142 49.142-17.142 2.286 11.428 43.428 49.142 61.714 56 27.428 155.428 28.572 273.142 27.428 92.572-1.142 118.858-6.858 154.286-14.858 108.572-26.286 72-126.858 72-369.142 0-77.714-14.858-186.286 41.142-221.714 24-16 83.428-2.286 229.714 246.858 0 0 68.572 118.858 122.286 257.142 9.142 25.142 28.572 35.428 28.572 35.428s18.286 10.286 43.428 6.858l329.142 2.286c99.428 12.572 115.428-33.142 115.428-33.142z" />
<glyph unicode="&#xf1a0;" glyph-name="google" horiz-adv-x="1720" d="M877.714 857.143h828.572c8-44.572 13.714-88 13.714-146.286 0-500.572-336-857.142-842.286-857.142-485.714 0-877.714 392-877.714 877.714s392 877.714 877.714 877.714c236.572 0 435.428-86.858 588.572-229.714l-238.858-229.714c-65.142 62.858-179.428 136-349.714 136-299.428 0-544-248-544-554.286s244.572-554.286 544-554.286c347.428 0 477.714 249.142 498.286 378.286h-498.286v301.714z" />
<glyph unicode="&#xf1b6;" glyph-name="steam" d="M1808 1090.287c0-154.286-125.714-278.858-278.858-278.858-154.286 0-278.858 124.572-278.858 278.858s124.572 278.858 278.858 278.858c153.142 0 278.858-124.572 278.858-278.858zM928 242.287c0 158.858-126.858 285.714-285.714 285.714-20.572 0-41.142-2.286-61.714-6.858l118.858-48c116.572-46.858 173.714-178.286 126.858-294.858s-179.428-173.714-296-125.714c-46.858 18.286-93.714 37.714-140.572 56 48-90.286 142.858-152 252.572-152 158.858 0 285.714 126.858 285.714 285.714zM1876.572 1089.143c0 192-156.572 348.572-348.572 348.572-193.142 0-349.714-156.572-349.714-348.572 0-193.142 156.572-348.572 349.714-348.572 192 0 348.572 155.428 348.572 348.572zM2048 1089.143c0-288-233.142-520-520-520l-499.428-364.572c-18.286-196.572-185.142-350.858-386.286-350.858-185.142 0-341.714 131.428-379.428 306.286l-262.858 105.142v490.286l444.572-179.428c58.286 35.428 125.714 54.858 197.714 54.858 13.714 0 27.428-1.142 40-2.286l324.572 465.142c2.286 284.572 235.428 515.428 521.142 515.428 286.858 0 520-233.142 520-520z" />
<glyph unicode="&#xf1be;" glyph-name="soundcloud" horiz-adv-x="2633" d="M896 187.429l18.286 275.428-18.286 597.714c-1.142 14.858-12.572 27.428-27.428 27.428-13.714 0-26.286-12.572-26.286-27.428l-16-597.714 16-275.428c1.142-14.858 12.572-26.286 26.286-26.286 14.858 0 26.286 11.428 27.428 26.286zM1234.286 220.571l12.572 241.142-13.714 669.714c0 11.428-5.714 21.714-14.858 27.428-5.714 3.428-11.428 5.714-18.286 5.714s-12.572-2.286-18.286-5.714c-9.142-5.714-14.858-16-14.858-27.428l-1.142-6.858-11.428-661.714s0-1.142 12.572-269.714v-1.142c0-6.858 2.286-13.714 6.858-19.428 6.858-8 16-12.572 26.286-12.572 9.142 0 17.142 4.572 22.858 10.286 6.858 5.714 10.286 13.714 10.286 22.858zM40 609.143l22.858-146.286-22.858-144c-1.142-5.714-4.572-10.286-10.286-10.286s-9.142 4.572-10.286 10.286l-19.428 144 19.428 146.286c1.142 5.714 4.572 10.286 10.286 10.286s9.142-4.572 10.286-10.286zM138.286 699.429l29.714-236.572-29.714-232c-1.142-5.714-5.714-10.286-11.428-10.286s-10.286 4.572-10.286 11.428l-26.286 230.858 26.286 236.572c0 5.714 4.572 10.286 10.286 10.286s10.286-4.572 11.428-10.286zM458.286 181.715v0 0zM243.428 742.857l28.572-280-28.572-270.858c0-6.858-5.714-12.572-12.572-12.572s-12.572 5.714-13.714 12.572l-24 270.858 24 280c1.142 8 6.858 13.714 13.714 13.714s12.572-5.714 12.572-13.714zM350.858 750.857l26.286-288-26.286-278.858c-1.142-9.142-8-14.858-16-14.858s-14.858 5.714-14.858 14.858l-24 278.858 24 288c0 9.142 6.858 14.858 14.858 14.858s14.858-5.714 16-14.858zM458.286 730.287l24-267.428-24-281.142c-1.142-10.286-9.142-18.286-18.286-18.286s-17.142 8-17.142 18.286l-22.858 281.142 22.858 267.428c0 9.142 8 17.142 17.142 17.142s17.142-8 18.286-17.142zM896 187.429v0 0zM565.714 897.143l24-434.286-24-281.142c0-11.428-9.142-20.572-19.428-20.572-11.428 0-19.428 9.142-20.572 20.572l-20.572 281.142 20.572 434.286c1.142 11.428 9.142 20.572 20.572 20.572 10.286 0 19.428-9.142 19.428-20.572zM673.142 995.429l21.714-534.858-21.714-278.858c0-12.572-10.286-21.714-21.714-21.714-12.572 0-21.714 9.142-22.858 21.714l-18.286 278.858 18.286 534.858c1.142 12.572 10.286 21.714 22.858 21.714 11.428 0 21.714-9.142 21.714-21.714zM785.142 1041.143l20.572-578.286-20.572-276.572c-1.142-13.714-11.428-24-25.142-24-12.572 0-22.858 10.286-24 24l-18.286 276.572 18.286 578.286c0 13.714 11.428 25.142 24 25.142 13.714 0 24-11.428 25.142-25.142zM1233.142 193.143v0 0 0 0 0 0zM1006.858 1045.715l17.142-582.858-17.142-273.142c0-16-12.572-28.572-28.572-28.572s-27.428 12.572-28.572 28.572l-16 273.142 16 582.858c0 16 12.572 28.572 28.572 28.572s28.572-12.572 28.572-28.572zM1120 1024.001l16-562.286-16-269.714c0-17.142-13.714-30.858-30.858-30.858s-30.858 13.714-32 30.858l-13.714 269.714 13.714 562.286c1.142 18.286 14.858 32 32 32s29.714-13.714 30.858-32zM1362.286 461.715l-16-264c0-19.428-16-35.428-35.428-35.428s-35.428 16-36.572 35.428l-6.858 130.286-6.858 133.714 13.714 726.858v3.428c1.142 10.286 5.714 20.572 13.714 27.428 5.714 4.572 13.714 8 22.858 8 5.714 0 12.572-2.286 17.142-5.714 10.286-5.714 17.142-17.142 18.286-29.714zM2633.142 483.429c0-178.286-145.142-322.286-323.428-322.286h-898.286c-19.428 2.286-35.428 17.142-35.428 37.714v1027.428c0 19.428 6.858 28.572 32 37.714 62.858 25.142 133.714 38.858 206.858 38.858 298.286 0 542.858-228.572 569.142-520 38.858 16 81.142 25.142 125.714 25.142 178.286 0 323.428-145.142 323.428-324.572z" />
<glyph unicode="&#xf1e8;" glyph-name="twitch" d="M1024 1259.429v-496h-165.714v496h165.714zM1478.858 1259.429v-496h-165.714v496h165.714zM1478.858 390.857l289.142 290.286v908.572h-1364.572v-1198.858h372.572v-248l248 248h454.858zM1933.714 1755.429v-1157.714l-496-496h-372.572l-248-248h-248v248h-454.858v1323.428l124.572 330.286h1694.858z" />
<glyph unicode="&#xf202;" glyph-name="lastfm" d="M1476.572 950.857c0-6.858 9.142-38.858 11.428-46.858 30.858-93.714 102.858-113.142 188.572-137.142 190.858-53.714 371.428-155.428 371.428-379.428 0-227.428-189.714-387.428-411.428-387.428-368 0-482.286 450.286-588.572 724.572-88 226.286-180.572 358.858-435.428 358.858-226.286 0-425.142-217.142-425.142-440 0-236.572 177.142-456 422.858-456 108.572 0 221.714 22.858 294.858 108.572v0c35.428 40 69.714 83.428 94.858 132.572l96-173.714c-12.572-28.572-30.858-56-50.286-80l1.142-1.142c-115.428-133.714-273.142-173.714-443.428-173.714-345.142 0-603.428 305.142-603.428 641.142 0 325.714 283.428 628.572 612.572 628.572 546.286 0 573.714-473.142 758.858-853.714 50.286-105.142 136-228.572 266.286-228.572 118.858 0 224 76.572 224 202.286 0 272-499.428 86.858-570.286 533.714-2.286 12.572-3.428 25.142-3.428 37.714 0 169.142 158.858 314.286 326.858 308.572 100.572-3.428 161.142-6.858 241.142-77.714h-1.142c30.858-28.572 53.714-67.428 77.714-100.572l-147.428-113.142c-17.142 32-33.142 58.286-61.714 80v1.142c-27.428 25.142-76.572 24-110.858 24-74.286 0-136-56-136-132.572z" />
<glyph unicode="&#xf231;" glyph-name="pinterest-p" horiz-adv-x="1463" d="M0 1073.143c0 421.714 386.286 682.286 777.142 682.286 358.858 0 685.714-246.858 685.714-625.142 0-355.428-181.714-749.714-586.286-749.714-96 0-217.142 48-264 137.142-86.858-344-80-395.428-272-658.286l-16-5.714-10.286 11.428c-6.858 72-17.142 142.858-17.142 214.858 0 233.142 107.428 570.286 160 796.572-28.572 58.286-36.572 129.142-36.572 193.142 0 115.428 80 261.714 210.286 261.714 96 0 147.428-73.142 147.428-163.428 0-148.572-100.572-288-100.572-432 0-98.286 81.142-166.858 176-166.858 262.858 0 344 379.428 344 581.714 0 270.858-192 418.286-451.428 418.286-301.714 0-534.858-217.142-534.858-523.428 0-147.428 90.286-222.858 90.286-258.286 0-29.714-21.714-134.858-59.428-134.858-5.714 0-13.714 2.286-19.428 3.428-163.428 49.142-222.858 267.428-222.858 417.142z" />
<glyph unicode="&#xf232;" glyph-name="whatsapp" horiz-adv-x="1755" d="M1125.714 642.287c19.428 0 205.714-97.142 213.714-110.858 2.286-5.714 2.286-12.572 2.286-17.142 0-28.572-9.142-60.572-19.428-86.858-26.286-64-132.572-105.142-197.714-105.142-54.858 0-168 48-217.142 70.858-163.428 74.286-265.142 201.142-363.428 346.286-43.428 64-82.286 142.858-81.142 221.714v9.142c2.286 75.428 29.714 129.142 84.572 180.572 17.142 16 35.428 25.142 59.428 25.142 13.714 0 27.428-3.428 42.286-3.428 30.858 0 36.572-9.142 48-38.858 8-19.428 66.286-174.858 66.286-186.286 0-43.428-78.858-92.572-78.858-118.858 0-5.714 2.286-11.428 5.714-17.142 25.142-53.714 73.142-115.428 116.572-156.572 52.572-50.286 108.572-83.428 172.572-115.428 8-4.572 16-8 25.142-8 34.286 0 91.428 110.858 121.142 110.858zM893.714 36.571c395.428 0 717.714 322.286 717.714 717.714s-322.286 717.714-717.714 717.714-717.714-322.286-717.714-717.714c0-150.858 48-298.286 137.142-420.572l-90.286-266.286 276.572 88c116.572-76.572 254.858-118.858 394.286-118.858zM893.714 1616.001c475.428 0 861.714-386.286 861.714-861.714s-386.286-861.714-861.714-861.714c-145.142 0-289.142 36.572-417.142 107.428l-476.572-153.142 155.428 462.858c-81.142 133.714-123.428 288-123.428 444.572 0 475.428 386.286 861.714 861.714 861.714z" />
<glyph unicode="&#xf24d;" glyph-name="clone" d="M1901.714-109.713v1243.428c0 19.428-17.142 36.572-36.572 36.572h-1243.428c-19.428 0-36.572-17.142-36.572-36.572v-1243.428c0-19.428 17.142-36.572 36.572-36.572h1243.428c19.428 0 36.572 17.142 36.572 36.572zM2048 1133.715v-1243.428c0-100.572-82.286-182.858-182.858-182.858h-1243.428c-100.572 0-182.858 82.286-182.858 182.858v1243.428c0 100.572 82.286 182.858 182.858 182.858h1243.428c100.572 0 182.858-82.286 182.858-182.858zM1609.142 1572.571v-182.858h-146.286v182.858c0 19.428-17.142 36.572-36.572 36.572h-1243.428c-19.428 0-36.572-17.142-36.572-36.572v-1243.428c0-19.428 17.142-36.572 36.572-36.572h182.858v-146.286h-182.858c-100.572 0-182.858 82.286-182.858 182.858v1243.428c0 100.572 82.286 182.858 182.858 182.858h1243.428c100.572 0 182.858-82.286 182.858-182.858z" />
<glyph unicode="&#xf27d;" glyph-name="vimeo" horiz-adv-x="2058" d="M1953.142 1163.429c-8-180.572-134.858-428.572-379.428-744-253.714-328-466.286-492.572-642.286-492.572-108.572 0-200 100.572-274.286 300.572-50.286 182.858-100.572 366.858-150.858 550.858-54.858 200-115.428 299.428-179.428 299.428-13.714 0-61.714-28.572-145.142-86.858l-88 112c91.428 81.142 181.714 163.428 272 242.286 121.142 107.428 213.714 161.142 275.428 166.858 145.142 13.714 233.142-84.572 267.428-296 35.428-228.572 61.714-371.428 75.428-426.286 42.286-189.714 86.858-284.572 137.142-284.572 38.858 0 97.142 60.572 176 184 77.714 123.428 118.858 217.142 124.572 281.142 10.286 106.286-30.858 158.858-124.572 158.858-44.572 0-90.286-10.286-138.286-29.714 91.428 299.428 266.286 444.572 524.572 436.572 190.858-5.714 281.142-130.286 269.714-372.572z" />
<glyph unicode="&#xf281;" glyph-name="reddit-alien" d="M2048 788.571c0-89.142-50.286-165.714-124.572-203.428 9.142-35.428 13.714-72 13.714-109.714 0-361.142-408-653.714-910.858-653.714-501.714 0-909.714 292.572-909.714 653.714 0 36.572 4.572 73.142 12.572 107.428-76.572 37.714-129.142 115.428-129.142 205.714 0 125.714 101.714 227.428 227.428 227.428 65.142 0 123.428-27.428 165.714-72 154.286 107.428 360 177.142 588.572 185.142l132.572 595.428c4.572 20.572 26.286 34.286 46.858 29.714l421.714-92.572c27.428 54.858 85.714 93.714 152 93.714 94.858 0 171.428-76.572 171.428-170.286 0-94.858-76.572-171.428-171.428-171.428-93.714 0-170.286 76.572-170.286 170.286l-381.714 84.572-118.858-539.428c229.714-6.858 437.714-75.428 593.142-182.858 41.142 43.428 99.428 69.714 163.428 69.714 125.714 0 227.428-101.714 227.428-227.428zM477.714 561.143c0-94.858 76.572-171.428 170.286-171.428 94.858 0 171.428 76.572 171.428 171.428 0 93.714-76.572 170.286-171.428 170.286-93.714 0-170.286-76.572-170.286-170.286zM1403.428 155.429c17.142 17.142 17.142 42.286 0 59.428-16 16-42.286 16-58.286 0-68.572-69.714-216-93.714-321.142-93.714s-252.572 24-321.142 93.714c-16 16-42.286 16-58.286 0-17.142-16-17.142-42.286 0-59.428 108.572-108.572 317.714-116.572 379.428-116.572s270.858 8 379.428 116.572zM1400 389.715c93.714 0 170.286 76.572 170.286 171.428 0 93.714-76.572 170.286-170.286 170.286-94.858 0-171.428-76.572-171.428-170.286 0-94.858 76.572-171.428 171.428-171.428z" />
<glyph unicode="&#xf290;" glyph-name="shopping-bag" d="M2008 146.287l40-357.714c2.286-20.572-4.572-41.142-18.286-57.142-13.714-14.858-34.286-24-54.858-24h-1901.714c-20.572 0-41.142 9.142-54.858 24-13.714 16-20.572 36.572-18.286 57.142l40 357.714h1968zM1901.714 1105.143l98.286-885.714h-1952l98.286 885.714c4.572 36.572 35.428 65.142 73.142 65.142h292.572v-146.286c0-81.142 65.142-146.286 146.286-146.286s146.286 65.142 146.286 146.286v146.286h438.858v-146.286c0-81.142 65.142-146.286 146.286-146.286s146.286 65.142 146.286 146.286v146.286h292.572c37.714 0 68.572-28.572 73.142-65.142zM1462.858 1316.571v-292.572c0-40-33.142-73.142-73.142-73.142s-73.142 33.142-73.142 73.142v292.572c0 161.142-131.428 292.572-292.572 292.572s-292.572-131.428-292.572-292.572v-292.572c0-40-33.142-73.142-73.142-73.142s-73.142 33.142-73.142 73.142v292.572c0 242.286 196.572 438.858 438.858 438.858s438.858-196.572 438.858-438.858z" />
<glyph unicode="&#xf2be;" glyph-name="user-circle-o" d="M1024 1755.429c565.714 0 1024-458.286 1024-1024 0-562.286-456-1024-1024-1024-566.858 0-1024 460.572-1024 1024 0 565.714 458.286 1024 1024 1024zM1731.428 211.429c106.286 146.286 170.286 325.714 170.286 520 0 483.428-394.286 877.714-877.714 877.714s-877.714-394.286-877.714-877.714c0-194.286 64-373.714 170.286-520 41.142 204.572 140.572 373.714 349.714 373.714 92.572-90.286 218.286-146.286 357.714-146.286s265.142 56 357.714 146.286c209.142 0 308.572-169.142 349.714-373.714zM1462.858 950.857c0 242.286-196.572 438.858-438.858 438.858s-438.858-196.572-438.858-438.858 196.572-438.858 438.858-438.858 438.858 196.572 438.858 438.858z" />
</font>
</defs>
</svg>
